<?xml version="1.0" encoding="UTF-8" standalone="no"?>
<!-- Created with Inkscape (http://www.inkscape.org/) -->

<svg
   width="210mm"
   height="297mm"
   viewBox="0 0 210 297"
   version="1.1"
   id="svg1"
   inkscape:version="1.4 (86a8ad7, 2024-10-11)"
   sodipodi:docname="drawing-logo.svg"
   xmlns:inkscape="http://www.inkscape.org/namespaces/inkscape"
   xmlns:sodipodi="http://sodipodi.sourceforge.net/DTD/sodipodi-0.dtd"
   xmlns="http://www.w3.org/2000/svg"
   xmlns:svg="http://www.w3.org/2000/svg">
  <sodipodi:namedview
     id="namedview1"
     pagecolor="#ffffff"
     bordercolor="#000000"
     borderopacity="0.25"
     inkscape:showpageshadow="2"
     inkscape:pageopacity="0.0"
     inkscape:pagecheckerboard="0"
     inkscape:deskcolor="#d1d1d1"
     inkscape:document-units="mm"
     inkscape:zoom="0.86426146"
     inkscape:cx="245.87467"
     inkscape:cy="418.85473"
     inkscape:window-width="1600"
     inkscape:window-height="930"
     inkscape:window-x="-6"
     inkscape:window-y="-6"
     inkscape:window-maximized="1"
     inkscape:current-layer="layer1" />
  <defs
     id="defs1" />
  <g
     inkscape:label="Layer 1"
     inkscape:groupmode="layer"
     id="layer1">
    <ellipse
       style="fill:#875329;fill-opacity:1;stroke:#b48116;stroke-width:0.293646;stroke-opacity:1"
       id="path1"
       cx="106.99525"
       cy="112.10384"
       rx="31.987106"
       ry="32.503616" />
    <path
       sodipodi:type="spiral"
       style="fill:none;fill-rule:evenodd;stroke:#000000;stroke-width:0.264583"
       id="path2"
       sodipodi:cx="107.45446"
       sodipodi:cy="92.147552"
       sodipodi:expansion="1"
       sodipodi:revolution="3.3501415"
       sodipodi:radius="32.826515"
       sodipodi:argument="-19.797682"
       sodipodi:t0="0"
       d="m 107.45446,92.147552 c 0.85956,-1.197244 2.03794,0.567991 1.9899,1.428644 -0.13018,2.332318 -2.95313,3.167286 -4.84719,2.551153 -3.38802,-1.102117 -4.44234,-5.235426 -3.1124,-8.265728 1.95172,-4.44709 7.54637,-5.748778 11.68427,-3.673662 5.51516,2.765804 7.0682,9.867184 4.23491,15.102813 -3.56541,6.588508 -12.19262,8.394278 -18.521353,4.796168 -7.664941,-4.35779 -9.724183,-14.520654 -5.357425,-21.939895 5.146073,-8.743318 16.850298,-11.056489 25.358438,-5.918679 9.82298,5.931804 12.3904,19.181025 6.47994,28.776984 -6.71585,10.90353 -21.51251,13.72543 -32.195529,7.04119 -11.984732,-7.49871 -15.061276,-23.844543 -7.602442,-35.61407 8.280719,-13.066407 26.176991,-16.397734 39.032611,-8.163697 14.14844,9.062091 17.73466,28.50976 8.72495,42.451147 -3.69763,5.72162 -9.22017,10.15994 -15.57627,12.59888"
       transform="translate(-5.7211318,11.327656)" />
    <path
       style="fill:#9c683f;fill-opacity:1;stroke:#b48116;stroke-width:0.259598;stroke-opacity:1"
       id="path10"
       sodipodi:type="arc"
       sodipodi:cx="92.217201"
       sodipodi:cy="110.29264"
       sodipodi:rx="29.669405"
       sodipodi:ry="30.860006"
       sodipodi:start="1.3063399"
       sodipodi:end="4.9363438"
       sodipodi:arc-type="arc"
       d="M 99.972328,140.07979 A 29.669405,30.860006 0 0 1 68.160774,128.35504 29.669405,30.860006 0 0 1 67.477362,93.258201 29.669405,30.860006 0 0 1 98.806402,80.203309"
       sodipodi:open="true" />
    <rect
       style="fill:#82481a;fill-opacity:1;stroke:#b48116;stroke-width:0.268697;stroke-opacity:1"
       id="rect10"
       width="40.604862"
       height="30.863602"
       x="84.632515"
       y="95.889076"
       ry="12.558296" />
    <path
       style="fill:#6b3409;fill-opacity:1;stroke:#b48116;stroke-width:0.285001;stroke-opacity:1"
       d="m 75.657069,107.4785 7.360057,25.43549 29.007294,-8.9836 z"
       id="path11"
       sodipodi:nodetypes="cccc" />
    <path
       style="fill:#643511;fill-opacity:1;stroke:#b48116;stroke-width:0.285001;stroke-opacity:1"
       d="M 77.497084,98.494896 66.34876,120.25036 92.217199,114.73032 Z"
       id="path12" />
    <path
       style="fill:#592f0e;fill-opacity:1;stroke:#b48116;stroke-width:0.285001;stroke-opacity:1"
       d="m 80.09475,107.15379 7.684768,-6.49417 13.529522,10.06596 z"
       id="path13" />
    <text
       xml:space="preserve"
       style="font-size:51.9237px;line-height:1.2;font-family:'Century Schoolbook';-inkscape-font-specification:'Century Schoolbook';text-align:start;letter-spacing:0px;word-spacing:0px;writing-mode:lr-tb;direction:ltr;text-anchor:start;fill:#8d040e;fill-opacity:1;stroke:#ae2955;stroke-width:2.62175;stroke-opacity:1"
       x="74.374435"
       y="135.9684"
       id="text13"
       transform="scale(1.0791192,0.92668168)"><tspan
         sodipodi:role="line"
         id="tspan13"
         style="stroke-width:2.62174;fill:#8d040e;fill-opacity:1;stroke:#ae2955;stroke-opacity:1"
         x="74.374435"
         y="135.9684">C</tspan></text>
  </g>
</svg>
